<svg height="512pt" viewBox="0 0 512 512" width="512pt" xmlns="http://www.w3.org/2000/svg"><g fill="#f8d539"><path d="m240 0h32v64h-32zm0 0"/><path d="m240 448h32v64h-32zm0 0"/><path d="m353.023438 89.550781 36.6875-52.4375 26.222656 18.34375-36.691406 52.4375zm0 0"/><path d="m96.074219 456.535156 36.6875-52.441406 26.21875 18.347656-36.6875 52.4375zm0 0"/><path d="m96.0625 55.480469 26.210938-18.355469 36.707031 52.429688-26.210938 18.351562zm0 0"/><path d="m353.019531 422.445312 26.210938-18.351562 36.707031 52.425781-26.210938 18.351563zm0 0"/><path d="m32 176h448c17.671875 0 32 14.328125 32 32v96c0 17.671875-14.328125 32-32 32h-448c-17.671875 0-32-14.328125-32-32v-96c0-17.671875 14.328125-32 32-32zm0 0"/></g><path d="m480 304h-448c-17.671875 0-32-14.328125-32-32v32c0 17.671875 14.328125 32 32 32h448c17.671875 0 32-14.328125 32-32v-32c0 17.671875-14.328125 32-32 32zm0 0" fill="#f2c714"/></svg>